<svg width="39" height="31" viewBox="0 0 39 31" fill="none" xmlns="http://www.w3.org/2000/svg">
<path d="M22.8436 15.4778C22.8436 15.5202 22.8423 15.5628 22.8397 15.6052C22.8372 15.6476 22.8334 15.69 22.8283 15.7323C22.8232 15.7746 22.8168 15.8168 22.8092 15.8588C22.8015 15.9009 22.7926 15.9428 22.7824 15.9844C22.7723 16.0262 22.7609 16.0676 22.7482 16.1088C22.7355 16.1501 22.7217 16.191 22.7065 16.2317C22.6914 16.2724 22.6751 16.3127 22.6576 16.3527C22.6399 16.3928 22.6212 16.4324 22.6014 16.4716C22.5814 16.511 22.5603 16.5498 22.538 16.5882C22.5158 16.6266 22.4923 16.6646 22.4678 16.702C22.4432 16.7396 22.4176 16.7766 22.3908 16.813C22.364 16.8495 22.3361 16.8854 22.3072 16.9207C22.2783 16.956 22.2483 16.9907 22.2172 17.0249C22.1862 17.059 22.1542 17.0925 22.1211 17.1254C22.0881 17.1582 22.054 17.1905 22.0191 17.2219C21.9841 17.2534 21.9482 17.2842 21.9113 17.3142C21.8745 17.3443 21.8368 17.3736 21.7982 17.4021C21.7596 17.4307 21.7201 17.4585 21.68 17.4854C21.6397 17.5124 21.5986 17.5385 21.5568 17.5638C21.5149 17.5892 21.4723 17.6136 21.429 17.6372C21.3858 17.6609 21.3417 17.6835 21.297 17.7054C21.2524 17.7273 21.207 17.7482 21.1611 17.7682C21.1152 17.7883 21.0687 17.8074 21.0216 17.8255C20.9745 17.8438 20.9269 17.861 20.8788 17.8772C20.8306 17.8935 20.782 17.9088 20.733 17.9232C20.6839 17.9374 20.6345 17.9508 20.5847 17.9631C20.5348 17.9755 20.4846 17.9868 20.4341 17.9971C20.3835 18.0074 20.3327 18.0167 20.2817 18.025C20.2305 18.0333 20.1793 18.0406 20.1277 18.0468C20.0762 18.053 20.0245 18.0583 19.9726 18.0624C19.9209 18.0666 19.8689 18.0698 19.8169 18.0718C19.7648 18.0739 19.7128 18.0749 19.6607 18.0749C19.6086 18.0749 19.5565 18.0739 19.5046 18.0718C19.4525 18.0698 19.4005 18.0666 19.3487 18.0624C19.2968 18.0583 19.2452 18.053 19.1936 18.0468C19.1422 18.0406 19.0908 18.0333 19.0397 18.025C18.9887 18.0167 18.9378 18.0074 18.8874 17.9971C18.8368 17.9868 18.7866 17.9755 18.7367 17.9631C18.6869 17.9508 18.6375 17.9374 18.5884 17.9232C18.5393 17.9088 18.4907 17.8935 18.4426 17.8772C18.3945 17.861 18.3469 17.8438 18.2998 17.8255C18.2527 17.8074 18.2062 17.7883 18.1603 17.7682C18.1144 17.7482 18.0691 17.7273 18.0243 17.7054C17.9797 17.6835 17.9357 17.6609 17.8923 17.6372C17.8491 17.6136 17.8064 17.5892 17.7647 17.5638C17.7228 17.5385 17.6817 17.5124 17.6415 17.4854C17.6012 17.4585 17.5618 17.4307 17.5232 17.4021C17.4846 17.3736 17.4469 17.3443 17.41 17.3142C17.3732 17.2842 17.3373 17.2534 17.3023 17.2219C17.2673 17.1905 17.2334 17.1582 17.2003 17.1254C17.1673 17.0925 17.1352 17.059 17.1041 17.0249C17.0731 16.9907 17.0432 16.956 17.0142 16.9207C16.9853 16.8854 16.9574 16.8495 16.9306 16.813C16.9038 16.7766 16.8782 16.7396 16.8537 16.702C16.829 16.6646 16.8057 16.6266 16.7834 16.5882C16.7611 16.5498 16.74 16.511 16.7201 16.4716C16.7002 16.4324 16.6814 16.3928 16.6639 16.3527C16.6462 16.3127 16.6299 16.2724 16.6149 16.2317C16.5997 16.191 16.5858 16.1501 16.5732 16.1088C16.5605 16.0676 16.5491 16.0262 16.539 15.9844C16.5288 15.9428 16.5199 15.9009 16.5123 15.8588C16.5046 15.8168 16.4982 15.7746 16.4932 15.7323C16.488 15.69 16.4841 15.6476 16.4816 15.6052C16.4791 15.5628 16.4778 15.5202 16.4778 15.4778C16.4778 15.4352 16.4791 15.3928 16.4816 15.3503C16.4841 15.3078 16.488 15.2655 16.4932 15.2232C16.4982 15.1809 16.5046 15.1387 16.5123 15.0967C16.5199 15.0547 16.5288 15.0128 16.539 14.9711C16.5491 14.9294 16.5605 14.888 16.5732 14.8467C16.5858 14.8055 16.5997 14.7645 16.6149 14.7239C16.6299 14.6832 16.6462 14.6428 16.6639 14.6028C16.6814 14.5628 16.7002 14.5232 16.7201 14.4838C16.74 14.4446 16.7611 14.4058 16.7834 14.3674C16.8057 14.3289 16.829 14.291 16.8537 14.2534C16.8782 14.216 16.9038 14.179 16.9306 14.1425C16.9574 14.1061 16.9853 14.0702 17.0142 14.0348C17.0432 13.9996 17.0731 13.9648 17.1041 13.9306C17.1352 13.8965 17.1673 13.863 17.2003 13.8302C17.2334 13.7973 17.2673 13.7651 17.3023 13.7336C17.3373 13.7021 17.3732 13.6714 17.41 13.6413C17.4469 13.6112 17.4846 13.5819 17.5232 13.5534C17.5618 13.5249 17.6012 13.4971 17.6415 13.4701C17.6817 13.4432 17.7228 13.417 17.7647 13.3917C17.8064 13.3664 17.8491 13.3419 17.8923 13.3183C17.9357 13.2947 17.9797 13.2719 18.0243 13.2501C18.0691 13.2283 18.1144 13.2074 18.1603 13.1873C18.2062 13.1672 18.2527 13.1481 18.2998 13.1299C18.3469 13.1118 18.3945 13.0946 18.4426 13.0783C18.4907 13.062 18.5393 13.0468 18.5884 13.0324C18.6375 13.0181 18.6869 13.0048 18.7367 12.9925C18.7866 12.9801 18.8368 12.9688 18.8874 12.9585C18.9378 12.9481 18.9887 12.9388 19.0397 12.9305C19.0908 12.9222 19.1422 12.915 19.1936 12.9087C19.2452 12.9025 19.2968 12.8973 19.3487 12.8931C19.4005 12.889 19.4525 12.8858 19.5046 12.8837C19.5565 12.8816 19.6086 12.8806 19.6607 12.8806C19.7128 12.8806 19.7648 12.8816 19.8169 12.8837C19.8689 12.8858 19.9209 12.889 19.9726 12.8931C20.0245 12.8973 20.0762 12.9025 20.1277 12.9087C20.1793 12.915 20.2305 12.9222 20.2817 12.9305C20.3327 12.9388 20.3835 12.9481 20.4341 12.9585C20.4846 12.9688 20.5348 12.9801 20.5847 12.9925C20.6345 13.0048 20.6839 13.0181 20.733 13.0324C20.782 13.0468 20.8306 13.062 20.8788 13.0783C20.9269 13.0946 20.9745 13.1118 21.0216 13.1299C21.0687 13.1481 21.1152 13.1672 21.1611 13.1873C21.207 13.2073 21.2524 13.2283 21.297 13.2501C21.3417 13.2719 21.3858 13.2947 21.429 13.3183C21.4723 13.3419 21.5149 13.3664 21.5568 13.3917C21.5986 13.417 21.6397 13.4432 21.68 13.4701C21.7201 13.4971 21.7596 13.5249 21.7982 13.5534C21.8368 13.5819 21.8745 13.6112 21.9113 13.6413C21.9482 13.6714 21.9841 13.7021 22.0191 13.7336C22.054 13.7651 22.0881 13.7973 22.1211 13.8302C22.1542 13.863 22.1862 13.8965 22.2172 13.9306C22.2483 13.9648 22.2783 13.9996 22.3072 14.0348C22.3361 14.0702 22.364 14.1061 22.3908 14.1426C22.4176 14.179 22.4432 14.216 22.4678 14.2534C22.4923 14.291 22.5158 14.3289 22.538 14.3674C22.5603 14.4058 22.5814 14.4446 22.6014 14.4838C22.6212 14.5232 22.6399 14.5628 22.6576 14.6028C22.6751 14.6428 22.6914 14.6832 22.7065 14.7239C22.7217 14.7645 22.7355 14.8055 22.7482 14.8467C22.7609 14.888 22.7723 14.9294 22.7824 14.9711C22.7926 15.0128 22.8015 15.0547 22.8092 15.0967C22.8168 15.1387 22.8232 15.1809 22.8283 15.2232C22.8334 15.2655 22.8372 15.3078 22.8397 15.3503C22.8423 15.3928 22.8436 15.4352 22.8436 15.4778Z" fill="#EEEEEE"/>
<mask id="mask0_87_1050" style="mask-type:luminance" maskUnits="userSpaceOnUse" x="1" y="3" width="37" height="25">
<path d="M1.83856 3.16226H37.4826V27.8589H1.83856V3.16226Z" fill="white"/>
</mask>
<g mask="url(#mask0_87_1050)">
<path d="M19.6608 10.197C23.9343 10.197 27.9043 10.6973 30.8977 11.5382C34.5043 12.5513 36.7217 14.087 36.7217 15.4775C36.7217 16.9265 34.3717 18.558 30.4987 19.6051C27.5707 20.3967 23.7176 20.8099 19.6608 20.8099C15.5017 20.8099 11.5632 20.422 8.6021 19.5964C4.85593 18.5515 2.59949 16.899 2.59949 15.4775C2.59949 14.0983 4.7167 12.5744 8.27257 11.5628C11.277 10.7081 15.3449 10.197 19.6605 10.197H19.6608Z" stroke="#EEEEEE" stroke-width="0.8"/>
</g>
<path d="M14.0274 12.8519C16.1623 9.83129 18.6768 7.27525 21.0648 5.57929C23.9422 3.53619 26.6798 2.73601 28.1563 3.4306C29.6947 4.1545 30.2526 6.63079 29.4294 9.8916C28.8076 12.3567 27.3209 15.2866 25.2942 18.1541C23.2164 21.0941 20.8371 23.6843 18.4814 25.3642C15.5007 27.4903 12.6189 28.2597 11.1102 27.5496C9.64584 26.861 9.08593 24.6028 9.78834 21.5841C10.3819 19.0334 11.8714 15.9028 14.0265 12.8525L14.0274 12.8519Z" stroke="#EEEEEE"/>
<path d="M14.0332 18.1617C11.8925 15.1444 10.4346 12.0901 9.82607 9.55484C9.09368 6.50037 9.61153 4.16503 11.0864 3.46818C12.6233 2.74218 15.5311 3.58435 18.5819 5.79471C20.8886 7.46589 23.2572 9.97971 25.2895 12.8443C27.3733 15.7814 28.9351 18.757 29.5426 21.2611C30.3114 24.4302 29.6892 26.8513 28.1816 27.5637C26.7187 28.2547 24.0416 27.5231 21.1872 25.5188C18.7755 23.8253 16.1951 21.2087 14.033 18.1611L14.0332 18.1617Z" stroke="#EEEEEE"/>
</svg>
